<svg width="226" height="220" viewBox="0 0 226 220" fill="none" xmlns="http://www.w3.org/2000/svg">
<ellipse cx="113" cy="110" rx="112.5" ry="110" fill="#D2F898"/>
<path d="M27.1105 131C25.7452 131 24.6998 130.637 23.9745 129.912C23.2492 129.187 22.8865 128.184 22.8865 126.904C22.8865 125.581 23.2492 124.579 23.9745 123.896C24.6998 123.213 25.7452 122.872 27.1105 122.872H33.5745V94.008H38.2465L28.9025 99.704C27.9212 100.301 27.0038 100.536 26.1505 100.408C25.3398 100.28 24.6358 99.9173 24.0385 99.32C23.4412 98.7227 23.0358 98.0187 22.8225 97.208C22.6518 96.3547 22.7372 95.5227 23.0785 94.712C23.4198 93.8587 24.0598 93.1333 24.9985 92.536L33.8945 87.16C34.7905 86.6053 35.6865 86.1573 36.5825 85.816C37.5212 85.4747 38.4385 85.304 39.3345 85.304C40.6145 85.304 41.6172 85.6453 42.3425 86.328C43.1105 86.968 43.4945 87.9707 43.4945 89.336V122.872H49.3185C50.6412 122.872 51.6652 123.213 52.3905 123.896C53.1158 124.579 53.4785 125.581 53.4785 126.904C53.4785 128.227 53.1158 129.251 52.3905 129.976C51.6652 130.659 50.6412 131 49.3185 131H27.1105ZM74.6375 131.704C69.1762 131.704 64.9948 129.677 62.0935 125.624C59.2348 121.528 57.8055 115.747 57.8055 108.28C57.8055 103.288 58.4455 99.0853 59.7255 95.672C61.0482 92.216 62.9468 89.6133 65.4215 87.864C67.9388 86.072 71.0108 85.176 74.6375 85.176C80.1415 85.176 84.3228 87.16 87.1815 91.128C90.0402 95.0533 91.4695 100.771 91.4695 108.28C91.4695 113.272 90.8082 117.517 89.4855 121.016C88.2055 124.472 86.3282 127.117 83.8535 128.952C81.3788 130.787 78.3068 131.704 74.6375 131.704ZM74.6375 123.64C77.1122 123.64 78.9468 122.424 80.1415 119.992C81.3362 117.517 81.9335 113.613 81.9335 108.28C81.9335 102.947 81.3362 99.1067 80.1415 96.76C78.9468 94.4133 77.1122 93.24 74.6375 93.24C72.1628 93.24 70.3282 94.4133 69.1335 96.76C67.9388 99.1067 67.3415 102.947 67.3415 108.28C67.3415 113.613 67.9388 117.517 69.1335 119.992C70.3282 122.424 72.1628 123.64 74.6375 123.64ZM113.013 131.704C107.551 131.704 103.37 129.677 100.469 125.624C97.6098 121.528 96.1805 115.747 96.1805 108.28C96.1805 103.288 96.8205 99.0853 98.1005 95.672C99.4232 92.216 101.322 89.6133 103.797 87.864C106.314 86.072 109.386 85.176 113.013 85.176C118.517 85.176 122.698 87.16 125.557 91.128C128.415 95.0533 129.845 100.771 129.845 108.28C129.845 113.272 129.183 117.517 127.861 121.016C126.581 124.472 124.703 127.117 122.229 128.952C119.754 130.787 116.682 131.704 113.013 131.704ZM113.013 123.64C115.487 123.64 117.322 122.424 118.517 119.992C119.711 117.517 120.309 113.613 120.309 108.28C120.309 102.947 119.711 99.1067 118.517 96.76C117.322 94.4133 115.487 93.24 113.013 93.24C110.538 93.24 108.703 94.4133 107.509 96.76C106.314 99.1067 105.717 102.947 105.717 108.28C105.717 113.613 106.314 117.517 107.509 119.992C108.703 122.424 110.538 123.64 113.013 123.64ZM151.388 131.704C145.926 131.704 141.745 129.677 138.844 125.624C135.985 121.528 134.556 115.747 134.556 108.28C134.556 103.288 135.196 99.0853 136.476 95.672C137.798 92.216 139.697 89.6133 142.172 87.864C144.689 86.072 147.761 85.176 151.388 85.176C156.892 85.176 161.073 87.16 163.932 91.128C166.79 95.0533 168.22 100.771 168.22 108.28C168.22 113.272 167.558 117.517 166.236 121.016C164.956 124.472 163.078 127.117 160.604 128.952C158.129 130.787 155.057 131.704 151.388 131.704ZM151.388 123.64C153.862 123.64 155.697 122.424 156.892 119.992C158.086 117.517 158.684 113.613 158.684 108.28C158.684 102.947 158.086 99.1067 156.892 96.76C155.697 94.4133 153.862 93.24 151.388 93.24C148.913 93.24 147.078 94.4133 145.884 96.76C144.689 99.1067 144.092 102.947 144.092 108.28C144.092 113.613 144.689 117.517 145.884 119.992C147.078 122.424 148.913 123.64 151.388 123.64ZM189.763 129.016C188.653 129.016 187.8 128.717 187.203 128.12C186.605 127.48 186.307 126.605 186.307 125.496V115.96H176.963C175.896 115.96 175.064 115.683 174.467 115.128C173.869 114.531 173.571 113.699 173.571 112.632C173.571 111.565 173.869 110.755 174.467 110.2C175.064 109.603 175.896 109.304 176.963 109.304H186.307V100.152C186.307 99 186.605 98.1253 187.203 97.528C187.8 96.9307 188.675 96.632 189.827 96.632C190.936 96.632 191.768 96.9307 192.323 97.528C192.92 98.1253 193.219 99 193.219 100.152V109.304H202.562C203.672 109.304 204.504 109.603 205.059 110.2C205.656 110.755 205.955 111.565 205.955 112.632C205.955 113.699 205.656 114.531 205.059 115.128C204.504 115.683 203.672 115.96 202.562 115.96H193.219V125.496C193.219 126.605 192.92 127.48 192.323 128.12C191.768 128.717 190.915 129.016 189.763 129.016Z" fill="#141313"/>
</svg>
