<svg width="226" height="220" fill="none" xmlns="http://www.w3.org/2000/svg"><ellipse cx="113" cy="110" rx="112.5" ry="110" fill="#D2F898"/><path d="M55.514 131.704c-2.176 0-4.416-.277-6.72-.832-2.304-.555-4.416-1.387-6.336-2.496-.981-.555-1.664-1.237-2.048-2.048a4.571 4.571 0 01-.32-2.496c.17-.853.512-1.579 1.024-2.176a3.641 3.641 0 012.048-1.216c.853-.171 1.792.021 2.816.576a23.95 23.95 0 004.544 1.792c1.579.427 3.179.64 4.8.64s3.008-.277 4.16-.832c1.152-.555 2.027-1.323 2.624-2.304.597-.981.896-2.133.896-3.456 0-2.048-.661-3.691-1.984-4.928-1.28-1.237-3.03-1.856-5.248-1.856-1.11 0-2.24.192-3.392.576-1.11.341-2.261.96-3.456 1.856-.427.341-.981.661-1.664.96a5.364 5.364 0 01-2.176.448c-1.323 0-2.304-.299-2.944-.896-.64-.64-.96-1.557-.96-2.752V90.168c0-1.408.363-2.475 1.088-3.2.768-.725 1.835-1.088 3.2-1.088H66.01c1.408 0 2.475.363 3.2 1.088.725.683 1.088 1.685 1.088 3.008 0 1.28-.363 2.283-1.088 3.008-.725.683-1.792 1.024-3.2 1.024H50.714v12.224h-2.432c1.067-1.323 2.475-2.347 4.224-3.072 1.75-.725 3.67-1.088 5.76-1.088 2.859 0 5.355.619 7.488 1.856 2.133 1.195 3.797 2.88 4.992 5.056 1.195 2.176 1.792 4.693 1.792 7.552 0 2.987-.683 5.632-2.048 7.936-1.365 2.261-3.328 4.032-5.888 5.312-2.56 1.28-5.59 1.92-9.088 1.92zm38.311 0c-5.461 0-9.643-2.027-12.544-6.08-2.859-4.096-4.288-9.877-4.288-17.344 0-4.992.64-9.195 1.92-12.608 1.323-3.456 3.221-6.059 5.696-7.808 2.517-1.792 5.59-2.688 9.216-2.688 5.504 0 9.685 1.984 12.544 5.952 2.859 3.925 4.288 9.643 4.288 17.152 0 4.992-.661 9.237-1.984 12.736-1.28 3.456-3.157 6.101-5.632 7.936-2.475 1.835-5.547 2.752-9.216 2.752zm0-8.064c2.475 0 4.31-1.216 5.504-3.648 1.195-2.475 1.792-6.379 1.792-11.712s-.597-9.173-1.792-11.52c-1.195-2.347-3.03-3.52-5.504-3.52-2.475 0-4.31 1.173-5.504 3.52-1.195 2.347-1.792 6.187-1.792 11.52 0 5.333.597 9.237 1.792 11.712 1.195 2.432 3.03 3.648 5.504 3.648zm38.375 8.064c-5.461 0-9.643-2.027-12.544-6.08-2.859-4.096-4.288-9.877-4.288-17.344 0-4.992.64-9.195 1.92-12.608 1.323-3.456 3.221-6.059 5.696-7.808 2.517-1.792 5.589-2.688 9.216-2.688 5.504 0 9.685 1.984 12.544 5.952 2.859 3.925 4.288 9.643 4.288 17.152 0 4.992-.661 9.237-1.984 12.736-1.28 3.456-3.157 6.101-5.632 7.936-2.475 1.835-5.547 2.752-9.216 2.752zm0-8.064c2.475 0 4.309-1.216 5.504-3.648 1.195-2.475 1.792-6.379 1.792-11.712s-.597-9.173-1.792-11.52c-1.195-2.347-3.029-3.52-5.504-3.52-2.475 0-4.309 1.173-5.504 3.52-1.195 2.347-1.792 6.187-1.792 11.52 0 5.333.597 9.237 1.792 11.712 1.195 2.432 3.029 3.648 5.504 3.648zm38.375 5.376c-1.109 0-1.963-.299-2.56-.896-.597-.64-.896-1.515-.896-2.624v-9.536h-9.344c-1.067 0-1.899-.277-2.496-.832-.597-.597-.896-1.429-.896-2.496s.299-1.877.896-2.432c.597-.597 1.429-.896 2.496-.896h9.344v-9.152c0-1.152.299-2.027.896-2.624s1.472-.896 2.624-.896c1.109 0 1.941.299 2.496.896.597.597.896 1.472.896 2.624v9.152h9.344c1.109 0 1.941.299 2.496.896.597.555.896 1.365.896 2.432s-.299 1.899-.896 2.496c-.555.555-1.387.832-2.496.832h-9.344v9.536c0 1.109-.299 1.984-.896 2.624-.555.597-1.408.896-2.56.896z" fill="#141313"/></svg>