<svg width="226" height="220" fill="none" xmlns="http://www.w3.org/2000/svg"><ellipse cx="113" cy="110" rx="112.5" ry="110" fill="#D2F898"/><path d="M27.11 131c-1.365 0-2.41-.363-3.136-1.088-.725-.725-1.087-1.728-1.087-3.008 0-1.323.362-2.325 1.087-3.008.726-.683 1.771-1.024 3.136-1.024h6.465V94.008h4.671l-9.344 5.696c-.98.597-1.898.832-2.752.704a3.75 3.75 0 01-2.111-1.088 4.59 4.59 0 01-1.216-2.112 4.182 4.182 0 01.255-2.496c.342-.853.982-1.579 1.92-2.176l8.896-5.376a15.8 15.8 0 012.689-1.344c.938-.341 1.855-.512 2.752-.512 1.28 0 2.282.341 3.008 1.024.767.64 1.151 1.643 1.151 3.008v33.536h5.825c1.322 0 2.346.341 3.072 1.024.725.683 1.087 1.685 1.087 3.008s-.362 2.347-1.087 3.072c-.726.683-1.75 1.024-3.072 1.024H27.11zm47.528.704c-5.462 0-9.643-2.027-12.545-6.08-2.858-4.096-4.288-9.877-4.288-17.344 0-4.992.64-9.195 1.92-12.608 1.323-3.456 3.222-6.059 5.696-7.808 2.518-1.792 5.59-2.688 9.216-2.688 5.504 0 9.686 1.984 12.544 5.952 2.86 3.925 4.288 9.643 4.288 17.152 0 4.992-.66 9.237-1.983 12.736-1.28 3.456-3.158 6.101-5.633 7.936-2.474 1.835-5.546 2.752-9.215 2.752zm0-8.064c2.474 0 4.309-1.216 5.503-3.648 1.195-2.475 1.792-6.379 1.792-11.712s-.597-9.173-1.792-11.52c-1.194-2.347-3.029-3.52-5.504-3.52-2.474 0-4.309 1.173-5.504 3.52-1.194 2.347-1.791 6.187-1.791 11.52 0 5.333.597 9.237 1.791 11.712 1.195 2.432 3.03 3.648 5.505 3.648zm38.375 8.064c-5.462 0-9.643-2.027-12.544-6.08-2.86-4.096-4.288-9.877-4.288-17.344 0-4.992.64-9.195 1.92-12.608 1.322-3.456 3.221-6.059 5.696-7.808 2.517-1.792 5.589-2.688 9.216-2.688 5.504 0 9.685 1.984 12.544 5.952 2.858 3.925 4.288 9.643 4.288 17.152 0 4.992-.662 9.237-1.984 12.736-1.28 3.456-3.158 6.101-5.632 7.936-2.475 1.835-5.547 2.752-9.216 2.752zm0-8.064c2.474 0 4.309-1.216 5.504-3.648 1.194-2.475 1.792-6.379 1.792-11.712s-.598-9.173-1.792-11.52c-1.195-2.347-3.03-3.52-5.504-3.52-2.475 0-4.31 1.173-5.504 3.52-1.195 2.347-1.792 6.187-1.792 11.52 0 5.333.597 9.237 1.792 11.712 1.194 2.432 3.029 3.648 5.504 3.648zm38.375 8.064c-5.462 0-9.643-2.027-12.544-6.08-2.859-4.096-4.288-9.877-4.288-17.344 0-4.992.64-9.195 1.92-12.608 1.322-3.456 3.221-6.059 5.696-7.808 2.517-1.792 5.589-2.688 9.216-2.688 5.504 0 9.685 1.984 12.544 5.952 2.858 3.925 4.288 9.643 4.288 17.152 0 4.992-.662 9.237-1.984 12.736-1.28 3.456-3.158 6.101-5.632 7.936-2.475 1.835-5.547 2.752-9.216 2.752zm0-8.064c2.474 0 4.309-1.216 5.504-3.648 1.194-2.475 1.792-6.379 1.792-11.712s-.598-9.173-1.792-11.52c-1.195-2.347-3.03-3.52-5.504-3.52-2.475 0-4.31 1.173-5.504 3.52-1.195 2.347-1.792 6.187-1.792 11.52 0 5.333.597 9.237 1.792 11.712 1.194 2.432 3.029 3.648 5.504 3.648zm38.375 5.376c-1.11 0-1.963-.299-2.56-.896-.598-.64-.896-1.515-.896-2.624v-9.536h-9.344c-1.067 0-1.899-.277-2.496-.832-.598-.597-.896-1.429-.896-2.496s.298-1.877.896-2.432c.597-.597 1.429-.896 2.496-.896h9.344v-9.152c0-1.152.298-2.027.896-2.624.597-.597 1.472-.896 2.624-.896 1.109 0 1.941.299 2.496.896.597.597.896 1.472.896 2.624v9.152h9.343c1.11 0 1.942.299 2.497.896.597.555.896 1.365.896 2.432s-.299 1.899-.896 2.496c-.555.555-1.387.832-2.497.832h-9.343v9.536c0 1.109-.299 1.984-.896 2.624-.555.597-1.408.896-2.56.896z" fill="#141313"/></svg>