<svg width="226" height="220" fill="none" xmlns="http://www.w3.org/2000/svg"><ellipse cx="112" cy="110" rx="112" ry="110" fill="#D2F898"/><path d="M74.701 135.396c-2.175 0-4.415-.277-6.72-.832-2.303-.554-4.415-1.386-6.335-2.496-.982-.554-1.665-1.237-2.049-2.048a4.569 4.569 0 01-.32-2.496c.171-.853.512-1.578 1.024-2.176a3.641 3.641 0 012.048-1.216c.854-.17 1.792.022 2.816.576a23.883 23.883 0 004.544 1.792c1.58.427 3.18.64 4.8.64 1.622 0 3.008-.277 4.16-.832 1.153-.554 2.027-1.322 2.624-2.304.598-.981.896-2.133.896-3.456 0-2.048-.66-3.69-1.983-4.928-1.28-1.237-3.03-1.856-5.249-1.856-1.109 0-2.24.192-3.391.576-1.11.342-2.262.96-3.457 1.856-.426.342-.98.662-1.663.96a5.364 5.364 0 01-2.177.448c-1.322 0-2.304-.298-2.944-.896-.64-.64-.96-1.557-.96-2.752V93.86c0-1.408.363-2.474 1.088-3.2.768-.725 1.835-1.088 3.2-1.088h20.544c1.409 0 2.475.363 3.2 1.088.726.683 1.088 1.686 1.088 3.008 0 1.28-.362 2.283-1.088 3.008-.725.683-1.791 1.024-3.2 1.024H69.901v12.224H67.47c1.066-1.322 2.474-2.346 4.224-3.072 1.749-.725 3.669-1.088 5.76-1.088 2.858 0 5.354.619 7.488 1.856 2.133 1.195 3.797 2.88 4.992 5.056 1.194 2.176 1.791 4.694 1.791 7.552 0 2.987-.682 5.632-2.047 7.936-1.366 2.262-3.328 4.032-5.888 5.312-2.56 1.28-5.59 1.92-9.089 1.92zm38.312 0c-5.462 0-9.643-2.026-12.544-6.08-2.86-4.096-4.288-9.877-4.288-17.344 0-4.992.64-9.194 1.92-12.608 1.322-3.456 3.221-6.058 5.696-7.808 2.517-1.792 5.589-2.688 9.216-2.688 5.504 0 9.685 1.984 12.544 5.952 2.858 3.926 4.288 9.643 4.288 17.152 0 4.992-.662 9.238-1.984 12.736-1.28 3.456-3.158 6.102-5.632 7.936-2.475 1.835-5.547 2.752-9.216 2.752zm0-8.064c2.474 0 4.309-1.216 5.504-3.648 1.194-2.474 1.792-6.378 1.792-11.712 0-5.333-.598-9.173-1.792-11.52-1.195-2.346-3.03-3.52-5.504-3.52-2.475 0-4.31 1.174-5.504 3.52-1.195 2.347-1.792 6.187-1.792 11.52 0 5.334.597 9.238 1.792 11.712 1.194 2.432 3.029 3.648 5.504 3.648zm38.375 5.376c-1.11 0-1.963-.298-2.56-.896-.598-.64-.896-1.514-.896-2.624v-9.536h-9.344c-1.067 0-1.899-.277-2.496-.832-.598-.597-.896-1.429-.896-2.496 0-1.066.298-1.877.896-2.432.597-.597 1.429-.896 2.496-.896h9.344v-9.152c0-1.152.298-2.026.896-2.624.597-.597 1.472-.896 2.624-.896 1.109 0 1.941.299 2.496.896.597.598.896 1.472.896 2.624v9.152h9.344c1.109 0 1.941.299 2.496.896.597.555.896 1.366.896 2.432 0 1.067-.299 1.899-.896 2.496-.555.555-1.387.832-2.496.832h-9.344v9.536c0 1.11-.299 1.984-.896 2.624-.555.598-1.408.896-2.56.896z" fill="#141313"/></svg>