<svg width="226" height="220" viewBox="0 0 226 220" fill="none" xmlns="http://www.w3.org/2000/svg">
<ellipse cx="112" cy="110" rx="112" ry="110" fill="#D2F898"/>
<path d="M74.7015 135.396C72.5255 135.396 70.2855 135.119 67.9815 134.564C65.6775 134.01 63.5655 133.178 61.6455 132.068C60.6642 131.514 59.9815 130.831 59.5975 130.02C59.2562 129.21 59.1495 128.378 59.2775 127.524C59.4482 126.671 59.7895 125.946 60.3015 125.348C60.8562 124.708 61.5388 124.303 62.3495 124.132C63.2028 123.962 64.1415 124.154 65.1655 124.708C66.6588 125.476 68.1735 126.074 69.7095 126.5C71.2882 126.927 72.8882 127.14 74.5095 127.14C76.1308 127.14 77.5175 126.863 78.6695 126.308C79.8215 125.754 80.6962 124.986 81.2935 124.004C81.8908 123.023 82.1895 121.871 82.1895 120.548C82.1895 118.5 81.5282 116.858 80.2055 115.62C78.9255 114.383 77.1762 113.764 74.9575 113.764C73.8482 113.764 72.7175 113.956 71.5655 114.34C70.4562 114.682 69.3042 115.3 68.1095 116.196C67.6828 116.538 67.1282 116.858 66.4455 117.156C65.7628 117.455 65.0375 117.604 64.2695 117.604C62.9468 117.604 61.9655 117.306 61.3255 116.708C60.6855 116.068 60.3655 115.151 60.3655 113.956V93.8603C60.3655 92.4523 60.7282 91.3857 61.4535 90.6603C62.2215 89.935 63.2882 89.5723 64.6535 89.5723H85.1975C86.6055 89.5723 87.6722 89.935 88.3975 90.6603C89.1228 91.343 89.4855 92.3457 89.4855 93.6683C89.4855 94.9483 89.1228 95.951 88.3975 96.6763C87.6722 97.359 86.6055 97.7003 85.1975 97.7003H69.9015V109.924H67.4695C68.5362 108.602 69.9442 107.578 71.6935 106.852C73.4428 106.127 75.3628 105.764 77.4535 105.764C80.3122 105.764 82.8082 106.383 84.9415 107.62C87.0748 108.815 88.7388 110.5 89.9335 112.676C91.1282 114.852 91.7255 117.37 91.7255 120.228C91.7255 123.215 91.0428 125.86 89.6775 128.164C88.3122 130.426 86.3495 132.196 83.7895 133.476C81.2295 134.756 78.2002 135.396 74.7015 135.396ZM113.013 135.396C107.551 135.396 103.37 133.37 100.469 129.316C97.6098 125.22 96.1805 119.439 96.1805 111.972C96.1805 106.98 96.8205 102.778 98.1005 99.3643C99.4232 95.9083 101.322 93.3057 103.797 91.5563C106.314 89.7643 109.386 88.8683 113.013 88.8683C118.517 88.8683 122.698 90.8523 125.557 94.8203C128.415 98.7457 129.845 104.463 129.845 111.972C129.845 116.964 129.183 121.21 127.861 124.708C126.581 128.164 124.703 130.81 122.229 132.644C119.754 134.479 116.682 135.396 113.013 135.396ZM113.013 127.332C115.487 127.332 117.322 126.116 118.517 123.684C119.711 121.21 120.309 117.306 120.309 111.972C120.309 106.639 119.711 102.799 118.517 100.452C117.322 98.1057 115.487 96.9323 113.013 96.9323C110.538 96.9323 108.703 98.1057 107.509 100.452C106.314 102.799 105.717 106.639 105.717 111.972C105.717 117.306 106.314 121.21 107.509 123.684C108.703 126.116 110.538 127.332 113.013 127.332ZM151.388 132.708C150.278 132.708 149.425 132.41 148.828 131.812C148.23 131.172 147.932 130.298 147.932 129.188V119.652H138.588C137.521 119.652 136.689 119.375 136.092 118.82C135.494 118.223 135.196 117.391 135.196 116.324C135.196 115.258 135.494 114.447 136.092 113.892C136.689 113.295 137.521 112.996 138.588 112.996H147.932V103.844C147.932 102.692 148.23 101.818 148.828 101.22C149.425 100.623 150.3 100.324 151.452 100.324C152.561 100.324 153.393 100.623 153.948 101.22C154.545 101.818 154.844 102.692 154.844 103.844V112.996H164.188C165.297 112.996 166.129 113.295 166.684 113.892C167.281 114.447 167.58 115.258 167.58 116.324C167.58 117.391 167.281 118.223 166.684 118.82C166.129 119.375 165.297 119.652 164.188 119.652H154.844V129.188C154.844 130.298 154.545 131.172 153.948 131.812C153.393 132.41 152.54 132.708 151.388 132.708Z" fill="#141313"/>
</svg>
